#!OML:ASF X:\für Bonn\!DataBase\2005_08_12_Daniel\c3d\Daniel.ASF
:FULLY-SPECIFIED
:DEGREES
106
root 7.14931 11.9932 -3.49196 -1629.78 189.768 175.061
lowerback 77.4423 -0.228421 -2.4877
upperback 12.4771 -4.16337 -7.54249
thorax -7.16347 -1.25768 -6.09047
lowerneck 8.13378 9.47883 6.92934
upperneck 5.52036 13.1 -9.72142
head 1.43622 6.56316 -4.04871
rclavicle -4.45278e-014 -3.4191e-014
rhumerus -371.174 19.8825 293.044
rradius 61.3027
rwrist -2.27435
rhand -18.4696 740.236
rfingers 7.12502
rthumb 7.81711 710.401
lclavicle -4.45278e-014 -3.4191e-014
lhumerus -523.448 177.825 -489.115
lradius 37.0257
lwrist -14.0588
lhand -17.0646 -729.379
lfingers 7.12502
lthumb 9.17299 20.4017
rfemur -604.888 -150.143 583.156
rtibia 96.4576
rfoot -20.733 13.1363
rtoes 21.5142
lfemur -51.071 0.391615 -4.03577
ltibia 118.252
lfoot 2.82363 -38.7201
ltoes 14.031
107
root 7.26966 11.8701 -3.47767 -1629.73 190.538 174.433
lowerback 77.9916 -0.191259 -2.46111
upperback 12.3424 -4.20463 -7.5731
thorax -7.26848 -1.2872 -6.14026
lowerneck 7.91411 9.45898 7.40511
upperneck 5.67065 13.1124 -9.84134
head 1.55479 6.56954 -4.13766
rclavicle -9.54166e-015 2.38542e-015
rhumerus -370.788 20.0046 293.537
rradius 60.9953
rwrist -2.34814
rhand -18.2463 740.334
rfingers 7.12502
rthumb 8.03262 710.507
lclavicle -9.54166e-015 2.38542e-015
lhumerus -522.89 176.604 -489.593
lradius 35.7703
lwrist -15.3193
lhand -17.5132 -729.628
lfingers 7.12502
lthumb 8.74011 20.1713
rfemur -605.708 -150.133 583.732
rtibia 97.4242
rfoot -20.6907 13.3315
rtoes 21.6279
lfemur -51.4484 0.798465 -3.55426
ltibia 119.435
lfoot 3.11118 -39.3384
ltoes 14.5854
108
root 7.3907 11.7473 -3.46341 -1629.74 191.315 173.774
lowerback 78.6325 -0.163467 -2.40544
upperback 12.1755 -4.24476 -7.61698
thorax -7.40233 -1.31311 -6.2219
lowerneck 7.74022 9.439 7.92785
upperneck 5.83869 13.1275 -9.95018
head 1.6743 6.57888 -4.23257
rclavicle -3.49861e-014 1.27222e-014
rhumerus -370.463 20.1652 294.002
rradius 60.6949
rwrist -2.45375
rhand -18.0372 740.339
rfingers 7.12502
rthumb 8.2344 710.52
lclavicle -3.49861e-014 1.27222e-014
lhumerus -522.395 175.43 -490.09
lradius 34.5312
lwrist -16.6047
lhand -18.0998 -729.871
lfingers 7.12502
lthumb 8.17398 19.9513
rfemur -606.447 -150.102 584.296
rtibia 98.3624
rfoot -20.638 13.4741
rtoes 21.6927
lfemur -51.7495 1.30189 -3.07282
ltibia 120.621
lfoot 3.15089 -39.8774
ltoes 15.0218
109
root 7.51393 11.6216 -3.44973 -1629.79 192.083 173.123
lowerback 79.3137 -0.13671 -2.36342
upperback 12.0112 -4.2958 -7.64622
thorax -7.5243 -1.34536 -6.27826
lowerneck 7.54304 9.44087 8.33287
upperneck 5.99799 13.1569 -9.9923
head 1.78475 6.59299 -4.28897
rclavicle -3.18055e-015 -5.725e-014
rhumerus -370.136 20.3617 294.484
rradius 60.4323
rwrist -2.60981
rhand -17.7662 740.293
rfingers 7.12502
rthumb 8.49595 710.483
lclavicle -3.18055e-015 -5.725e-014
lhumerus -521.941 174.225 -490.541
lradius 33.3138
lwrist -17.8953
lhand -18.816 -730.055
lfingers 7.12502
lthumb 7.48272 19.7927
rfemur -607.132 -150.034 584.823
rtibia 99.3043
rfoot -20.5924 13.6545
rtoes 21.8735
lfemur -52.0449 1.79573 -2.66677
ltibia 121.842
lfoot 3.05264 -40.286
ltoes 15.5299
110
root 7.63782 11.4929 -3.43509 -1629.81 192.854 172.463
lowerback 79.935 -0.116134 -2.29725
upperback 11.8605 -4.33169 -7.677
thorax -7.63561 -1.3717 -6.34995
lowerneck 7.43942 9.42587 8.7079
upperneck 6.12177 13.1619 -10.0244
head 1.86513 6.59738 -4.34494
rclavicle -5.40694e-014 -3.65764e-014
rhumerus -369.851 20.5946 294.976
rradius 60.1943
rwrist -2.71283
rhand -17.545 740.125
rfingers 7.12502
rthumb 8.70945 710.325
lclavicle -5.40694e-014 -3.65764e-014
lhumerus -521.576 173.193 -491.051
lradius 32.1821
lwrist -19.0043
lhand -19.6188 -730.103
lfingers 7.12502
lthumb 6.70781 19.7708
rfemur -607.852 -149.967 585.358
rtibia 100.262
rfoot -20.5406 13.8901
rtoes 21.9101
lfemur -52.3291 2.50578 -2.23254
ltibia 123.104
lfoot 2.87409 -40.6684
ltoes 15.9211
111
root 7.76278 11.3608 -3.41992 -1629.79 193.639 171.789
lowerback 80.4165 -0.0762278 -2.23468
upperback 11.7735 -4.33388 -7.66931
thorax -7.67809 -1.39173 -6.38266
lowerneck 7.40984 9.43433 8.8735
upperneck 6.16365 13.1776 -9.94722
head 1.89012 6.60609 -4.34322
rclavicle -3.81667e-014 8.74653e-015
rhumerus -369.579 20.9064 295.564
rradius 59.9982
rwrist -2.7916
rhand -17.4127 739.879
rfingers 7.12502
rthumb 8.83713 710.084
lclavicle -3.81667e-014 8.74653e-015
lhumerus -521.166 171.966 -491.297
lradius 30.9977
lwrist -20.3566
lhand -20.4217 -730.068
lfingers 7.12502
lthumb 5.93265 19.8293
rfemur -608.625 -149.909 585.915
rtibia 101.247
rfoot -20.4683 14.1566
rtoes 21.9094
lfemur -52.6617 3.40096 -1.79056
ltibia 124.417
lfoot 2.70409 -40.9172
ltoes 16.078
112
root 7.88791 11.2246 -3.40535 -1629.79 194.402 171.095
lowerback 80.8755 -0.0648247 -2.13578
upperback 11.7159 -4.33265 -7.65909
thorax -7.68857 -1.4105 -6.4265
lowerneck 7.36246 9.44341 8.96821
upperneck 6.21544 13.1879 -9.84963
head 1.91439 6.61028 -4.32392
rclavicle -6.36111e-015 -3.81667e-014
rhumerus -369.316 21.2559 296.172
rradius 59.8314
rwrist -2.82694
rhand -17.3374 739.585
rfingers 7.12502
rthumb 8.90973 709.793
lclavicle -6.36111e-015 -3.81667e-014
lhumerus -520.738 170.555 -491.361
lradius 29.7851
lwrist -22.012
lhand -21.2775 -730.008
lfingers 7.12502
lthumb 5.1064 19.9108
rfemur -609.392 -149.835 586.465
rtibia 102.236
rfoot -20.3786 14.4601
rtoes 21.9465
lfemur -53.0067 4.44214 -1.35428
ltibia 125.785
lfoot 2.18225 -41.0881
ltoes 15.9187
